<?xml version="1.0" standalone="no"?><!DOCTYPE svg PUBLIC "-//W3C//DTD SVG 1.1//EN" "http://www.w3.org/Graphics/SVG/1.1/DTD/svg11.dtd"><svg class="icon" width="200px" height="200.00px" viewBox="0 0 1024 1024" version="1.1" xmlns="http://www.w3.org/2000/svg"><path d="M512 917.333c12.8 0 21.333-8.533 21.333-21.333 0-12.8-8.533-21.333-21.333-21.333-12.8 0-21.333 8.533-21.333 21.333 0 12.8 8.533 21.333 21.333 21.333zM682.667 42.667H341.333C294.4 42.667 256 81.067 256 128v768c0 46.933 38.4 85.333 85.333 85.333h341.334C729.6 981.333 768 942.933 768 896V128c0-46.933-38.4-85.333-85.333-85.333zM725.333 896c0 23.467-19.2 42.667-42.666 42.667H341.333c-23.466 0-42.666-19.2-42.666-42.667v-42.667h426.666V896z m0-85.333H298.667V213.333h426.666v597.334z m0-640H298.667V128c0-23.467 19.2-42.667 42.666-42.667h341.334c23.466 0 42.666 19.2 42.666 42.667v42.667z m-192-64h-42.666c-12.8 0-21.334 8.533-21.334 21.333s8.534 21.333 21.334 21.333h42.666c12.8 0 21.334-8.533 21.334-21.333s-8.534-21.333-21.334-21.333z" /></svg>