<?xml version="1.0" standalone="no"?><!DOCTYPE svg PUBLIC "-//W3C//DTD SVG 1.1//EN" "http://www.w3.org/Graphics/SVG/1.1/DTD/svg11.dtd"><svg class="icon" width="200px" height="200.00px" viewBox="0 0 1024 1024" version="1.1" xmlns="http://www.w3.org/2000/svg"><path d="M509.29664 998.468267c-147.4048 0-421.638827-218.118827-421.638827-424.359254V180.363947c0-9.536853 8.045227-17.257813 18.036054-17.452374l23.872853-0.38912c0.91136 0 94.52544-1.880747 191.064747-39.8336 99.068587-38.8608 162.90816-83.561813 163.556693-84.0192l14.144853-9.925973a19.063467 19.063467 0 0 1 10.898774-3.437227c3.82976 0 7.656107 1.102507 10.837333 3.372374l14.336 9.990826c0.648533 0.453973 64.556373 45.154987 163.556693 84.0192 96.60416 37.952853 190.221653 39.8336 191.194454 39.8336l23.678293 0.38912c9.997653 0.19456 18.04288 7.91552 18.04288 17.452374l0.191147 393.741653c-0.006827 206.240427-274.240853 424.362667-421.771947 424.362667z m356.693333-772.235947c-36.263253-2.72384-112.49664-12.004693-191.71328-43.144533-80.964267-31.788373-140.455253-67.47136-164.980053-83.24096-24.459947 15.704747-84.0192 51.452587-164.918613 83.24096-79.086933 31.074987-155.12576 40.352427-191.8464 43.144533v347.876693c0 161.7408 238.87872 359.48544 356.765013 359.48544 45.677227 0 134.683307-36.78208 222.208-117.620053 84.33664-77.858133 134.68672-168.297813 134.68672-241.865387l-0.201387-347.876693zM475.4944 640.21504a32.11264 32.11264 0 0 1-22.89664 9.536853 32.365227 32.365227 0 0 1-22.96832-9.536853l-97.317547-97.24928c-12.649813-12.71808-12.649813-33.215147 0-45.868373 12.71808-12.71808 33.21856-12.71808 45.868374 0l74.417493 74.35264 187.88352-187.890347c12.711253-12.714667 33.211733-12.714667 45.868373 0 12.711253 12.653227 12.711253 33.153707 0 45.868373l-210.855253 210.786987z" /></svg>