<?xml version="1.0" standalone="no"?><!DOCTYPE svg PUBLIC "-//W3C//DTD SVG 1.1//EN" "http://www.w3.org/Graphics/SVG/1.1/DTD/svg11.dtd"><svg class="icon" width="200px" height="200.00px" viewBox="0 0 1024 1024" version="1.1" xmlns="http://www.w3.org/2000/svg"><path d="M717.197 1003.945c-164.744 0-295.684-131.247-295.684-296.358 0-165.107 135.158-296.337 295.684-296.337 164.744 0 299.907 131.225 295.686 296.337-0.001 165.111-130.942 296.358-295.686 296.358z m0-541.903c-135.178 0-244.995 110.08-244.995 245.544 0 135.488 109.817 245.546 244.995 245.546 135.16 0 244.998-110.058 244.998-245.546 0-135.464-109.838-245.544-244.998-245.544z m105.598 283.646l12.672 80.459c0 12.691-4.214 21.169-12.672 29.624-4.219 0-8.455 4.236-16.89 4.236-4.236 0-8.455 0-12.672-4.236l-71.818-38.103-71.819 38.103c-12.671 4.236-25.343 4.236-33.779-4.243-8.453-8.453-12.672-16.926-12.672-29.622l8.436-84.672-59.128-55.029c-8.453-8.479-12.67-16.957-8.453-29.647 4.236-12.691 12.672-21.164 25.345-21.164l80.252-12.695 38.021-71.981c12.671-21.169 46.469-21.169 54.929 0l38.015 71.981 80.254 12.695c12.673 4.231 21.126 8.473 25.345 21.169 0 12.686 0 25.401-4.219 38.097l-59.147 55.028z m-67.582-63.483c-8.455-4.241-16.908-8.479-21.127-16.957l-16.89-33.854-16.908 33.854c-4.218 8.479-12.671 16.957-21.106 16.957l-38.021 4.213 25.343 25.411c8.437 4.236 8.437 16.927 8.437 25.405l-4.213 33.86 33.798-16.928c4.218-4.242 8.435-4.242 12.671-4.242 4.219 0 8.436 0 12.673 4.242l29.566 21.169-4.223-38.102c0-8.479 0-16.933 8.435-25.405l29.586-25.411-38.021-4.212z m-582.934-8.478v-67.744h168.958v67.744H172.276h0.003z m0-440.28h422.408v67.723H172.279v-67.723z m0 173.566H510.22v67.742H172.279v-67.742z m591.369-313.29H83.568v825.551h295.687c12.672 16.934 25.346 50.793 42.258 71.963H45.55c-16.889 0-33.778-16.934-33.778-33.861V59.86C11.771 42.93 28.66 26 45.55 26h756.12c16.907 0 33.798 16.93 33.798 33.86v275.191c-16.891 0-54.906-4.237-71.819-4.237V93.723h-0.001z" /></svg>