<?xml version="1.0" standalone="no"?><!DOCTYPE svg PUBLIC "-//W3C//DTD SVG 1.1//EN" "http://www.w3.org/Graphics/SVG/1.1/DTD/svg11.dtd"><svg class="icon" width="200px" height="200.00px" viewBox="0 0 1024 1024" version="1.1" xmlns="http://www.w3.org/2000/svg"><path d="M512.206708 36.928051c-261.822101 0-474.891847 213.040071-474.891847 474.866265 0 261.873266 213.069747 474.889801 474.891847 474.889801 261.826194 0 474.889801-213.016535 474.893894-474.889801C987.100602 249.968122 774.032902 36.928051 512.206708 36.928051zM512.206708 937.720961c-234.845703 0-425.926646-191.085036-425.926646-425.926646 0-234.845703 191.080943-425.901063 425.926646-425.901063s425.926646 191.05536 425.926646 425.901063C938.133354 746.634902 747.05241 937.720961 512.206708 937.720961z"  /><path d="M546.81083 511.846504l142.936433-142.914944c9.56075-9.56075 9.56075-25.069979 0-34.625612-9.56075-9.556657-25.069979-9.556657-34.630728 0l-142.936433 142.914944L369.243669 334.305949c-9.56075-9.556657-25.069979-9.556657-34.630728 0-9.56075 9.556657-9.56075 25.065885 0 34.625612l142.936433 142.914944-142.936433 142.914944c-9.56075 9.56075-9.56075 25.065885 0 34.621519 4.779863 4.78498 11.04966 7.121188 17.311271 7.121188 6.269797 0 12.539594-2.341325 17.319457-7.121188l142.936433-142.909827 142.936433 142.909827c4.779863 4.78498 11.04966 7.121188 17.319457 7.121188 6.260587 0 12.530384-2.341325 17.311271-7.121188 9.56075-9.556657 9.56075-25.060769 0-34.621519L546.81083 511.846504z"  /></svg>