<?xml version="1.0" standalone="no"?><!DOCTYPE svg PUBLIC "-//W3C//DTD SVG 1.1//EN" "http://www.w3.org/Graphics/SVG/1.1/DTD/svg11.dtd"><svg class="icon" width="200px" height="200.00px" viewBox="0 0 1024 1024" version="1.1" xmlns="http://www.w3.org/2000/svg"><path d="M768 524.8c-134.3 0-243.2 108.9-243.2 243.2 0 134.3 108.9 243.2 243.2 243.2 134.3 0 243.2-108.9 243.2-243.2C1011.2 633.7 902.3 524.8 768 524.8L768 524.8 768 524.8 768 524.8zM766.4 938.2c-19.8 0-35.9-15.8-35.9-35.2s16-35.2 35.9-35.2c19.8 0 35.9 15.8 35.9 35.2S786.3 938.2 766.4 938.2L766.4 938.2 766.4 938.2 766.4 938.2zM862.8 739.2c-7 11.1-22 26.1-44.9 45.2-11.9 9.8-19.2 17.8-22.1 23.8-2.9 6-4.2 16.7-3.9 32.2l-51.1 0c-0.1-7.3-0.2-11.8-0.2-13.4 0-16.5 2.7-30.1 8.2-40.8 5.5-10.7 16.4-22.7 32.8-36 16.4-13.4 26.2-22.1 29.4-26.2 4.9-6.5 7.4-13.8 7.4-21.6 0-10.9-4.4-20.2-13.1-28.1-8.7-7.8-20.6-11.7-35.4-11.7-14.3 0-26.3 4.1-35.9 12.2-9.6 8.1-17.9 26-19.8 37.1-1.8 10.5-52.2 14.9-51.6-6.3 0.6-21.2 11.6-44.2 30.5-60.8 18.9-16.7 43.7-25 74.4-25 32.3 0 58 8.4 77.1 25.3 19.1 16.9 28.6 36.5 28.6 58.9C873.3 716.4 869.8 728.1 862.8 739.2L862.8 739.2 862.8 739.2 862.8 739.2z"  /><path d="M472.064 770.56c0-32.256 5.632-63.488 15.36-92.672L121.344 677.888l0-55.808 391.68 0c28.672-47.104 70.144-85.504 119.808-110.08L121.344 512 121.344 455.68l556.544 0 0 38.912c26.112-7.68 53.76-12.288 82.432-12.288 9.216 0 17.92 0.512 27.136 1.536L787.456 65.536c0-28.16-16.896-52.736-38.4-52.736L51.2 12.8c-21.504 0-38.4 24.576-38.4 52.736l0 782.336c0 28.16 16.896 52.736 38.4 52.736l451.584 0C483.328 861.696 472.064 817.664 472.064 770.56zM121.344 123.392l333.312 0 0 54.784L121.344 178.176 121.344 123.392zM121.344 289.28l556.544 0 0 55.808L121.344 345.088 121.344 289.28z"  /></svg>