<?xml version="1.0" standalone="no"?><!DOCTYPE svg PUBLIC "-//W3C//DTD SVG 1.1//EN" "http://www.w3.org/Graphics/SVG/1.1/DTD/svg11.dtd"><svg class="icon" width="200px" height="200.00px" viewBox="0 0 1024 1024" version="1.1" xmlns="http://www.w3.org/2000/svg"><path d="M413.8 730.3c-9.3 0-18.5-3.5-25.6-10.6-14.1-14.1-14.1-37 0-51.2L544.7 512 388.2 355.5c-14.1-14.1-14.1-37 0-51.2s37-14.1 51.2 0l182.1 182.1c14.1 14.1 14.1 37 0 51.2L439.3 719.7c-7 7.1-16.3 10.6-25.5 10.6z" fill="#5057A4" /><path d="M595.9 548.2H101.4c-20 0-36.2-16.2-36.2-36.2 0-20 16.2-36.2 36.2-36.2h494.5c20 0 36.2 16.2 36.2 36.2 0 20-16.2 36.2-36.2 36.2z" fill="#5057A4" /><path d="M512 958.8c-180.4 0-342.1-107.5-412-273.8-7.8-18.4 0.9-39.6 19.3-47.4 18.4-7.8 39.6 0.9 47.4 19.3C225.3 796.4 360.8 886.4 512 886.4c206.5 0 374.4-168 374.4-374.4 0-206.5-168-374.4-374.4-374.4-151.2 0-286.7 90.1-345.3 229.4-7.7 18.4-28.9 27-47.4 19.3-18.4-7.7-27.1-28.9-19.3-47.4C169.9 172.7 331.6 65.2 512 65.2c246.4 0 446.8 200.4 446.8 446.8S758.4 958.8 512 958.8z" fill="#5057A4" /></svg>