<?xml version="1.0" standalone="no"?><!DOCTYPE svg PUBLIC "-//W3C//DTD SVG 1.1//EN" "http://www.w3.org/Graphics/SVG/1.1/DTD/svg11.dtd"><svg class="icon" width="200px" height="200.00px" viewBox="0 0 1024 1024" version="1.1" xmlns="http://www.w3.org/2000/svg"><path d="M1008.326 118.202c0-22.719-18.641-41.36-41.36-41.36h-912.261c-22.719 0-41.36 18.641-41.36 41.36v787.597c0 22.719 18.641 41.36 41.36 41.36h912.261c22.719 0 41.36-18.641 41.36-41.36v-787.597zM924.439 864.438h-827.21v-91.459c8.156-20.972 34.953-90.294 75.148-159.617 57.671-98.45 116.509-152.626 165.442-152.626 66.41 0 139.81 99.615 206.802 279.62l29.71 81.556 44.273-74.565s16.311-26.797 43.108-53.011c21.554-20.972 55.342-46.604 91.459-46.604 24.467 0 48.933 11.069 73.983 34.37 33.205 30.292 65.827 79.226 96.702 145.635v36.7zM925.605 666.956c-13.398-17.476-27.379-32.622-41.36-46.021-40.778-37.283-84.468-55.924-129.907-55.924-51.264 0-103.693 25.050-151.461 71.652l-6.991 6.991c-33.788-79.808-68.74-140.393-106.605-184.083-46.604-54.176-97.867-81.556-150.879-81.556-82.721 0-162.529 64.662-237.677 193.404-1.747 2.331-2.913 5.243-4.66 7.573v-419.43h829.54v507.394z"  /><path d="M693.17 385.588c6.991 7.573 15.146 13.981 24.467 18.641 11.069 5.825 23.884 8.738 37.283 8.738 11.651 0 22.137-2.331 32.039-6.407 8.738-3.495 16.311-8.738 23.301-14.563 8.156-7.573 15.146-16.894 19.807-27.379 4.66-10.485 7.573-22.137 7.573-34.37 0-10.485-1.747-20.389-5.243-29.71-4.078-11.069-11.069-20.972-19.223-29.127-8.738-8.738-19.807-15.729-31.457-19.807-8.156-2.913-17.476-4.078-26.797-4.078-12.234 0-24.467 2.913-34.953 7.573-9.903 4.66-18.641 11.069-26.214 19.223-6.991 7.573-12.234 15.729-15.729 25.632-3.495 9.321-5.825 19.807-5.825 30.875 0 11.651 2.331 23.301 6.991 33.788 2.913 6.991 8.156 14.563 13.981 20.972z"  /></svg>