<?xml version="1.0" standalone="no"?><!DOCTYPE svg PUBLIC "-//W3C//DTD SVG 1.1//EN" "http://www.w3.org/Graphics/SVG/1.1/DTD/svg11.dtd"><svg class="icon" width="200px" height="200.00px" viewBox="0 0 1024 1024" version="1.1" xmlns="http://www.w3.org/2000/svg"><path d="M906 0H118C52.4 0 0 54.8 0 122.8v655.4c0 68 53.2 122.8 118 122.8h259.6l106.4 110.6c7.4 8.2 18 12.2 27.8 12.2s20.4-4 27.8-12.2l106.4-110.6h260c65.6 0 118-54.8 118-122.8V122.8C1024 55.8 970.8 0 906 0zM295.8 491.6c-32.8 0-59-27.8-59-61.4s26.2-61.4 59-61.4 59 27.8 59 61.4-27.2 61.4-59 61.4z m235.8 0c-32.8 0-59-27.8-59-61.4s26.2-61.4 59-61.4 59 27.8 59 61.4-26.2 61.4-59 61.4z m236.8 0c-32.8 0-59-27.8-59-61.4s26.2-61.4 59-61.4 59 27.8 59 61.4-27 61.4-59 61.4z"  /></svg>