<?xml version="1.0" standalone="no"?><!DOCTYPE svg PUBLIC "-//W3C//DTD SVG 1.1//EN" "http://www.w3.org/Graphics/SVG/1.1/DTD/svg11.dtd"><svg class="icon" width="200px" height="200.00px" viewBox="0 0 1024 1024" version="1.1" xmlns="http://www.w3.org/2000/svg"><path d="M124.928 72.192h774.144v141.824h-774.144v-141.824zM510.976 327.168c84.48 0 161.28 33.792 218.624 89.088l157.696-172.544h-752.128l157.696 172.544c56.832-55.296 133.632-89.088 218.112-89.088z"  /><path d="M512 367.616c-154.112 0-278.528 124.928-278.528 278.528s124.928 278.528 278.528 278.528c154.112 0 278.528-124.928 278.528-278.528s-124.416-278.528-278.528-278.528z m108.544 433.664l-108.544-57.344-108.544 57.344 20.992-120.832-88.064-85.504 121.344-17.408 54.272-110.08 54.272 110.08 121.344 17.408-88.064 85.504 20.992 120.832z"  /></svg>