<?xml version="1.0" standalone="no"?><!DOCTYPE svg PUBLIC "-//W3C//DTD SVG 1.1//EN" "http://www.w3.org/Graphics/SVG/1.1/DTD/svg11.dtd"><svg class="icon" width="200px" height="200.00px" viewBox="0 0 1024 1024" version="1.1" xmlns="http://www.w3.org/2000/svg"><path d="M273.082 307.296L599.25 7.338c9.966-9.317 26.177-9.317 36.177 0l252.791 235.864c4.778 4.437 7.475 10.546 7.475 16.86 0 6.382-2.697 12.423-7.475 16.928l-34.947 30.306c-32.389 1.604-38.327 2.696-68.258 0l48.872-47.234-216.58-202.077-275.966 249.311c-37.78 0.444-37.542 1.877-68.257 0z m-102.387 0L360.417 11.877c7.065-11.33 22.627-15.255 34.88-8.702l150.815 65.22c-29.18 27.678-16.246-2.867-68.258 34.128l-85.97-46.108-152.931 250.881c-45.63 1.365-40.955-1.194-68.258 0z m725.27 716.465h-767.93C57.455 1023.761 0.051 970.18 0.051 904.311V406.132c0-65.834 65.936-98.837 136.515-98.837h750.832c70.579 0 136.55 33.003 136.55 98.837V904.31c0 65.869-57.44 119.451-127.983 119.451zM142.267 375.11c-40.784 0-73.957 12.628-73.957 49.282v482.273c0 36.689 33.173 49.282 73.957 49.282H881.7c40.784 0 73.957-12.593 73.957-49.282V424.392c0-36.654-33.173-49.282-73.957-49.282H142.266zM734.06 750.697c-65.869 0-119.45-53.65-119.45-119.587 0-65.937 53.581-119.587 119.45-119.587 65.834 0 119.45 53.65 119.45 119.587 0 65.936-53.616 119.587-119.45 119.587z m-0.034-178.869c-32.969 0-59.828 26.825-59.828 59.794 0 32.934 26.86 59.725 59.828 59.725s59.827-26.791 59.827-59.725c0-33.003-26.859-59.794-59.827-59.794z"  /></svg>